<svg width="27" height="27" viewBox="0 0 27 27" fill="none" xmlns="http://www.w3.org/2000/svg">
<path d="M22.936 10.0952L22.8953 10.0401L22.8872 10.024L19.19 4.53546L15.4927 10.024L15.485 10.0394L15.4439 10.0953C14.8507 10.8987 14.5371 11.8533 14.5371 12.8558C14.5371 15.4214 16.6244 17.5086 19.1899 17.5086C21.7555 17.5086 23.8427 15.4214 23.8427 12.8558C23.8428 11.8532 23.5292 10.8986 22.936 10.0952Z" fill="#1890FF"/>
<path d="M19.1895 19.0939C15.7497 19.0939 12.9513 16.2955 12.9513 12.8558C12.9513 11.5187 13.3679 10.2446 14.1561 9.16995L16.5866 5.56191L12.8397 0L5.0332 11.5886C3.80581 13.2589 3.15723 15.2393 3.15723 17.3174C3.15723 22.6564 7.50081 27 12.8398 27C17.8986 27 22.063 23.1002 22.4863 18.1492C21.5291 18.7475 20.3991 19.0939 19.1895 19.0939Z" fill="#1890FF"/>
</svg>
