<svg width="28" height="28" viewBox="0 0 28 28" fill="none" xmlns="http://www.w3.org/2000/svg">
<path fill-rule="evenodd" clip-rule="evenodd" d="M19.7073 7.7069L16.4143 11L19.707 14.2929C19.993 14.5789 20.0785 15.009 19.9238 15.3826C19.769 15.7563 19.4044 16 19 16H10V21C10 21.5523 9.55228 22 9 22C8.44772 22 8 21.5523 8 21V7C8 6.44772 8.44772 6 9 6H19C19.4044 6.00001 19.769 6.24359 19.9238 6.61719C20.0786 6.99079 19.9932 7.42086 19.7073 7.7069ZM10 8V14H16.5861L14.2931 11.7071C13.9027 11.3166 13.9027 10.6835 14.2931 10.293L16.5861 8H10Z" fill="#1C1C1C"/>
</svg>
