<svg width="24" height="24" viewBox="0 0 24 24" fill="none" xmlns="http://www.w3.org/2000/svg">
<g opacity="0.4">
<path fill-rule="evenodd" clip-rule="evenodd" d="M12.6414 6.23213L18.6414 11.2321L18.6407 11.2323C18.8685 11.4226 19.0001 11.7041 19.0001 12.0009C19.0001 12.2977 18.8685 12.5792 18.6407 12.7695L12.6407 17.7695C12.2154 18.1121 11.594 18.0503 11.2444 17.6308C10.8948 17.2112 10.9462 16.5889 11.3598 16.2323L15.2391 13H6C5.44772 13 5 12.5523 5 12C5 11.4477 5.44772 11 6 11H15.2371L11.3598 7.76913C10.9354 7.41523 10.8782 6.78426 11.2321 6.35983C11.586 5.9354 12.217 5.87823 12.6414 6.23213Z" fill="#1C1C1C"/>
</g>
</svg>
