<svg width="24" height="24" viewBox="0 0 24 24" fill="none" xmlns="http://www.w3.org/2000/svg">
<path fill-rule="evenodd" clip-rule="evenodd" d="M10.5814 11.9956L7.75285 9.16707C7.36233 8.77654 7.36233 8.14338 7.75285 7.75285C8.14338 7.36233 8.77654 7.36233 9.16707 7.75285L11.9956 10.5814L14.8241 7.75286C15.2146 7.36234 15.8478 7.36234 16.2383 7.75286C16.6288 8.14339 16.6288 8.77655 16.2383 9.16708L13.4098 11.9956L16.2381 14.8239C16.6287 15.2144 16.6287 15.8476 16.2381 16.2381C15.8476 16.6287 15.2144 16.6287 14.8239 16.2381L11.9956 13.4098L9.16722 16.2381C8.77669 16.6287 8.14353 16.6287 7.75301 16.2381C7.36248 15.8476 7.36248 15.2145 7.75301 14.8239L10.5814 11.9956Z" fill="#E92C2C"/>
</svg>
