<svg width="24" height="24" viewBox="0 0 24 24" fill="none" xmlns="http://www.w3.org/2000/svg">
<path fill-rule="evenodd" clip-rule="evenodd" d="M19 8H16V7C15.9982 5.3439 14.6561 4.00182 13 4H11C9.3439 4.00182 8.00182 5.3439 8 7V8H5C4.44772 8 4 8.44772 4 9C4 9.55228 4.44772 10 5 10H6V19C6 19.5523 6.44772 20 7 20H17C17.5523 20 18 19.5523 18 19V10H19C19.5523 10 20 9.55228 20 9C20 8.44772 19.5523 8 19 8ZM10 7C10.0007 6.44801 10.448 6.00072 11 6H13C13.552 6.00072 13.9993 6.44801 14 7V8H10V7ZM8 18H16V10H8V18Z" fill="#1C1C1C"/>
</svg>
