<svg width="24" height="24" viewBox="0 0 24 24" fill="none" xmlns="http://www.w3.org/2000/svg">
<path d="M6.66667 21C5.95942 21 5.28115 20.7155 4.78105 20.2092C4.28095 19.7028 4 19.0161 4 18.3C4 17.76 4.16 17.256 4.44444 16.833L9.33333 8.229V6.6C9.09759 6.6 8.87149 6.50518 8.70479 6.3364C8.53809 6.16761 8.44444 5.93869 8.44444 5.7V4.8C8.44444 4.32261 8.63175 3.86477 8.96514 3.52721C9.29854 3.18964 9.75073 3 10.2222 3H13.7778C14.2493 3 14.7015 3.18964 15.0349 3.52721C15.3683 3.86477 15.5556 4.32261 15.5556 4.8V5.7C15.5556 5.93869 15.4619 6.16761 15.2952 6.3364C15.1285 6.50518 14.9024 6.6 14.6667 6.6V8.229L19.5556 16.833C19.84 17.256 20 17.76 20 18.3C20 19.0161 19.719 19.7028 19.219 20.2092C18.7189 20.7155 18.0406 21 17.3333 21H6.66667ZM5.77778 18.3C5.77778 18.5387 5.87143 18.7676 6.03813 18.9364C6.20483 19.1052 6.43092 19.2 6.66667 19.2H17.3333C17.5691 19.2 17.7952 19.1052 17.9619 18.9364C18.1286 18.7676 18.2222 18.5387 18.2222 18.3C18.2222 18.111 18.16 17.931 18.0622 17.787L16.0267 14.223L13.7778 16.5L9.27111 11.937L5.93778 17.787C5.84 17.931 5.77778 18.111 5.77778 18.3ZM12.8889 10.2C12.6531 10.2 12.427 10.2948 12.2604 10.4636C12.0937 10.6324 12 10.8613 12 11.1C12 11.3387 12.0937 11.5676 12.2604 11.7364C12.427 11.9052 12.6531 12 12.8889 12C13.1246 12 13.3507 11.9052 13.5174 11.7364C13.6841 11.5676 13.7778 11.3387 13.7778 11.1C13.7778 10.8613 13.6841 10.6324 13.5174 10.4636C13.3507 10.2948 13.1246 10.2 12.8889 10.2Z" fill="black"/>
</svg>
