<svg width="24" height="24" viewBox="0 0 24 24" fill="none" xmlns="http://www.w3.org/2000/svg">
<path fill-rule="evenodd" clip-rule="evenodd" d="M18.0219 5.87901C17.4593 5.3162 16.6961 5 15.9003 5C15.1044 5 14.3412 5.3162 13.7786 5.87901L5.293 14.3631C5.10543 14.5506 5.00003 14.805 5 15.0702V17.8984C5 18.4507 5.44772 18.8984 6 18.8984H8.829C9.09425 18.8985 9.34864 18.7931 9.5361 18.6054L18.0227 10.1208C19.1896 8.94752 19.1893 7.05186 18.0219 5.87901ZM16.6068 7.29261C16.9963 7.68337 16.9967 8.3154 16.6078 8.70671L15.9006 9.41391L14.4858 7.99951L15.1927 7.29261C15.5832 6.90216 16.2163 6.90216 16.6068 7.29261ZM7.0001 16.8984H8.4151L14.4864 10.8279L13.0715 9.41351L7.0001 15.4843V16.8984Z" fill="#1C1C1C"/>
</svg>
