<svg width="24" height="24" viewBox="0 0 24 24" fill="none" xmlns="http://www.w3.org/2000/svg">
<path fill-rule="evenodd" clip-rule="evenodd" d="M6 4H18C18.5523 4 19 4.44772 19 5V19C19 19.5523 18.5523 20 18 20H6C5.44772 20 5 19.5523 5 19V5C5 4.44772 5.44772 4 6 4ZM7 18H17V6H7V18Z" fill="#1C1C1C"/>
<path fill-rule="evenodd" clip-rule="evenodd" d="M10 10H14C14.5523 10 15 9.55228 15 9C15 8.44772 14.5523 8 14 8H10C9.44772 8 9 8.44772 9 9C9 9.55228 9.44772 10 10 10Z" fill="#1C1C1C"/>
<path fill-rule="evenodd" clip-rule="evenodd" d="M10 14H14C14.5523 14 15 13.5523 15 13C15 12.4477 14.5523 12 14 12H10C9.44772 12 9 12.4477 9 13C9 13.5523 9.44772 14 10 14Z" fill="#1C1C1C"/>
</svg>
