<svg width="24" height="24" viewBox="0 0 24 24" fill="none" xmlns="http://www.w3.org/2000/svg">
    <g opacity="0.64" fill="none">
        <g clip-path="url(#clip0_1947:3060)" aaa="bbb" fill="none" stroke="currentColor" stroke-width="2" stroke-linecap="round" stroke-linejoin="round">
            <path d="M16.1654 19.5V17.8333C16.1654 16.9493 15.8142 16.1014 15.1891 15.4763C14.5639 14.8512 13.7161 14.5 12.832 14.5H6.16536C5.28131 14.5 4.43346 14.8512 3.80834 15.4763C3.18322 16.1014 2.83203 16.9493 2.83203 17.8333V19.5" />
            <path d="M9.4974 11.1667C11.3383 11.1667 12.8307 9.67428 12.8307 7.83333C12.8307 5.99238 11.3383 4.5 9.4974 4.5C7.65645 4.5 6.16406 5.99238 6.16406 7.83333C6.16406 9.67428 7.65645 11.1667 9.4974 11.1667Z" />
            <path d="M21.1641 19.5V17.8333C21.1635 17.0948 20.9177 16.3773 20.4652 15.7936C20.0127 15.2099 19.3792 14.793 18.6641 14.6083" />
            <path d="M15.332 4.60834C16.049 4.79192 16.6846 5.20892 17.1384 5.7936C17.5922 6.37827 17.8386 7.09736 17.8386 7.8375C17.8386 8.57765 17.5922 9.29674 17.1384 9.88141C16.6846 10.4661 16.049 10.8831 15.332 11.0667" />
        </g>
    </g>
</svg>
