<svg width="29" height="28" viewBox="0 0 29 28" fill="none" xmlns="http://www.w3.org/2000/svg">
<path d="M14.6667 8.16667V3.5H3V24.5H26.3333V8.16667H14.6667ZM7.66667 22.1667H5.33333V19.8333H7.66667V22.1667ZM7.66667 17.5H5.33333V15.1667H7.66667V17.5ZM7.66667 12.8333H5.33333V10.5H7.66667V12.8333ZM7.66667 8.16667H5.33333V5.83333H7.66667V8.16667ZM12.3333 22.1667H10V19.8333H12.3333V22.1667ZM12.3333 17.5H10V15.1667H12.3333V17.5ZM12.3333 12.8333H10V10.5H12.3333V12.8333ZM12.3333 8.16667H10V5.83333H12.3333V8.16667ZM24 22.1667H14.6667V19.8333H17V17.5H14.6667V15.1667H17V12.8333H14.6667V10.5H24V22.1667ZM21.6667 12.8333H19.3333V15.1667H21.6667V12.8333ZM21.6667 17.5H19.3333V19.8333H21.6667V17.5Z" fill="black"/>
</svg>
