<svg width="25" height="24" viewBox="0 0 25 24" fill="none" xmlns="http://www.w3.org/2000/svg">
<g opacity="0.64">
<path fill-rule="evenodd" clip-rule="evenodd" d="M19.5911 4.02911C19.8896 3.95579 20.2053 4.02265 20.4485 4.21071C20.6916 4.40039 20.8335 4.69159 20.8333 4.99991V14.9999C20.8337 15.2652 20.7284 15.5198 20.5408 15.7074C20.3532 15.895 20.0986 16.0003 19.8333 15.9999C19.7517 15.9998 19.6704 15.9899 19.5911 15.9705L13.3578 14.4121L14.7815 18.6835C14.8832 18.9884 14.8321 19.3236 14.6443 19.5844C14.4564 19.8452 14.1547 19.9998 13.8333 19.9999H9.83329C9.40286 20 9.02075 19.7244 8.88509 19.3159L6.94829 13.5059C5.33013 12.6455 4.50706 10.7927 4.95344 9.01525C5.39983 7.23777 7.00063 5.99366 8.83329 5.99991H11.7083L19.5911 4.02911ZM10.8333 7.99991H8.83329C7.72872 7.99991 6.83329 8.89534 6.83329 9.99991C6.83329 11.1045 7.72872 11.9999 8.83329 11.9999H10.8333V7.99991ZM10.554 17.9999L9.22099 13.9999H11.1126L12.4456 17.9999H10.554ZM12.8333 12.2185L18.8333 13.7185V6.28101L12.8333 7.78101V12.2185Z" fill="#1C1C1C"/>
</g>
</svg>
