<svg width="25" height="25" viewBox="0 0 25 25" fill="none" xmlns="http://www.w3.org/2000/svg">
<path d="M3.88845 2.77777C3.59377 2.77777 3.31115 2.89483 3.10278 3.10321C2.89441 3.31158 2.77734 3.5942 2.77734 3.88888V8.33333H8.3329V2.77777H3.88845ZM6.94401 6.94444H4.16623V4.16666H6.94401V6.94444Z" fill="white"/>
<path d="M2.77734 21.1111C2.77734 21.4058 2.89441 21.6884 3.10278 21.8968C3.31115 22.1052 3.59377 22.2222 3.88845 22.2222H8.3329V16.6667H2.77734V21.1111ZM4.16623 18.0556H6.94401V20.8334H4.16623V18.0556Z" fill="white"/>
<path d="M16.668 22.2222H21.1124C21.4071 22.2222 21.6897 22.1051 21.8981 21.8967C22.1065 21.6884 22.2235 21.4058 22.2235 21.1111V16.6666H16.668V22.2222ZM18.0569 18.0555H20.8346V20.8333H18.0569V18.0555Z" fill="white"/>
<path d="M21.1124 2.77777H16.668V8.33333H22.2235V3.88888C22.2235 3.5942 22.1065 3.31158 21.8981 3.10321C21.6897 2.89483 21.4071 2.77777 21.1124 2.77777ZM20.8346 6.94444H18.0569V4.16666H20.8346V6.94444Z" fill="white"/>
<path d="M13.8872 6.94443V5.55554H11.1094V8.33332H12.4983V6.94443H13.8872Z" fill="white"/>
<path d="M8.33203 8.33331H9.72092V9.7222H8.33203V8.33331Z" fill="white"/>
<path d="M9.72266 9.72223H12.5004V11.1111H9.72266V9.72223Z" fill="white"/>
<path d="M13.8893 4.16666V5.55555H15.2782V2.77777H9.72266V5.55555H11.1115V4.16666H13.8893Z" fill="white"/>
<path d="M2.77734 9.72223H4.16623V12.5H2.77734V9.72223Z" fill="white"/>
<path d="M8.3329 11.1111V12.5H6.94401V9.72223H5.55512V12.5H4.16623V13.8889H2.77734V15.2778H5.55512V13.8889H6.94401V15.2778H8.3329V13.8889H9.72179V11.1111H8.3329Z" fill="white"/>
<path d="M13.8889 11.1111H15.2778V12.5H16.6667V11.1111H18.0556V9.72224H15.2778V6.94446H13.8889V8.33335H12.5V9.72224H13.8889V11.1111Z" fill="white"/>
<path d="M12.5004 20.8333H9.72266V22.2222H15.2782V20.8333H13.8893V19.4445H12.5004V20.8333Z" fill="white"/>
<path d="M15.276 13.8889V12.5H13.8872V11.1111H12.4983V12.5H11.1094V13.8889H12.4983V15.2778H13.8872V13.8889H15.276Z" fill="white"/>
<path d="M20.832 13.8889H22.2209V15.2778H20.832V13.8889Z" fill="white"/>
<path d="M15.2773 13.8889H19.444V15.2778H15.2773V13.8889Z" fill="white"/>
<path d="M20.8325 9.72223H19.4436V11.1111H18.0547V12.5H19.4436V13.8889H20.8325V12.5H22.2214V11.1111H20.8325V9.72223Z" fill="white"/>
<path d="M13.8906 15.2778H15.2795V19.4444H13.8906V15.2778Z" fill="white"/>
<path d="M9.72266 19.4445H11.1115V18.0556H12.5004V16.6667H11.1115V13.8889H9.72266V19.4445Z" fill="white"/>
</svg>
