<svg width="28" height="28" viewBox="0 0 28 28" fill="none" xmlns="http://www.w3.org/2000/svg">
<path fill-rule="evenodd" clip-rule="evenodd" d="M19.3743 7.37359L16.0813 10.6667L19.374 13.9596C19.66 14.2456 19.7455 14.6757 19.5908 15.0493C19.436 15.423 19.0714 15.6666 18.667 15.6667H9.66699V20.6667C9.66699 21.219 9.21928 21.6667 8.66699 21.6667C8.11471 21.6667 7.66699 21.219 7.66699 20.6667V6.66669C7.66699 6.1144 8.11471 5.66669 8.66699 5.66669H18.667C19.0714 5.66669 19.436 5.91027 19.5908 6.28387C19.7456 6.65748 19.6602 7.08754 19.3743 7.37359ZM9.66699 7.66669V13.6667H16.2531L13.9601 11.3738C13.5696 10.9833 13.5696 10.3502 13.9601 9.95969L16.2531 7.66669H9.66699Z" fill="#1C1C1C"/>
</svg>
