<svg width="25" height="24" viewBox="0 0 25 24" fill="none" xmlns="http://www.w3.org/2000/svg">
<g opacity="0.64">
<path fill-rule="evenodd" clip-rule="evenodd" d="M19.5 4H9.5C8.94772 4 8.5 4.44772 8.5 5V8H5.5C4.94772 8 4.5 8.44772 4.5 9V17C4.50182 18.6561 5.8439 19.9982 7.5 20H17.5C19.1561 19.9982 20.4982 18.6561 20.5 17V5C20.5 4.44772 20.0523 4 19.5 4ZM6.5 10H8.5V17C8.5 17.5523 8.05228 18 7.5 18C6.94772 18 6.5 17.5523 6.5 17V10ZM17.5 18C18.0519 17.999 18.499 17.5519 18.5 17V6H10.5V17C10.4967 17.3415 10.4343 17.6798 10.3158 18H17.5Z" fill="#0085FF"/>
<path fill-rule="evenodd" clip-rule="evenodd" d="M13.5 10H15.5C16.0523 10 16.5 9.55228 16.5 9C16.5 8.44772 16.0523 8 15.5 8H13.5C12.9477 8 12.5 8.44772 12.5 9C12.5 9.55228 12.9477 10 13.5 10Z" fill="#0085FF"/>
<path fill-rule="evenodd" clip-rule="evenodd" d="M15.5 12H13.5C12.9477 12 12.5 12.4477 12.5 13C12.5 13.5523 12.9477 14 13.5 14H15.5C16.0523 14 16.5 13.5523 16.5 13C16.5 12.4477 16.0523 12 15.5 12Z" fill="#0085FF"/>
</g>
</svg>
