<svg width="25" height="24" viewBox="0 0 25 24" fill="none" xmlns="http://www.w3.org/2000/svg">
<g opacity="0.64">
<path fill-rule="evenodd" clip-rule="evenodd" d="M20.1675 12.0005C20.1908 13.1508 19.3285 14.1269 18.1841 14.2456C18.0904 14.2573 18.01 14.3185 17.9739 14.4057C17.9377 14.493 17.9512 14.5929 18.0091 14.6675C18.71 15.5681 18.6304 16.8497 17.8235 17.6567C17.0165 18.4636 15.7348 18.5432 14.8343 17.8423C14.7601 17.7834 14.6596 17.7699 14.5726 17.8071C14.4834 17.8412 14.4213 17.923 14.4126 18.0181C14.2934 19.1621 13.3174 20.0239 12.1675 20.0005C11.0172 20.0238 10.041 19.1615 9.92236 18.0171C9.91058 17.9234 9.84944 17.8432 9.7622 17.8071C9.67497 17.7709 9.57505 17.7844 9.50046 17.8423C8.60767 18.5679 7.30748 18.4872 6.51126 17.6568C5.68096 16.8604 5.60025 15.5604 6.32566 14.6675C6.38367 14.5928 6.39704 14.4926 6.36066 14.4053C6.32427 14.318 6.24376 14.257 6.14986 14.2456C5.00586 14.1264 4.14406 13.1504 4.16746 12.0005C4.14411 10.8502 5.00646 9.87403 6.15086 9.75537C6.24455 9.74359 6.32471 9.68245 6.36085 9.59521C6.397 9.50798 6.38356 9.40806 6.32566 9.33347C5.60007 8.4406 5.68088 7.1404 6.51146 6.34427C7.30776 5.51399 8.60777 5.43327 9.50066 6.15867C9.57365 6.22024 9.67569 6.23396 9.76236 6.19387C9.85155 6.15977 9.9136 6.07795 9.92236 5.98287C10.0415 4.83887 11.0175 3.97707 12.1675 4.00047C13.3178 3.97701 14.2941 4.83939 14.4128 5.98387C14.4218 6.07862 14.4838 6.16003 14.5728 6.19387C14.6599 6.23091 14.7602 6.21741 14.8345 6.15867C15.7273 5.43296 17.0276 5.51369 17.8238 6.34427C18.654 7.14059 18.7347 8.4406 18.0093 9.33347C17.9512 9.40818 17.9379 9.50831 17.9743 9.59563C18.0106 9.68294 18.0912 9.74396 18.1851 9.75537C19.3291 9.87452 20.1909 10.8505 20.1675 12.0005ZM16.1265 13.6399C16.4382 12.8879 17.13 12.3613 17.938 12.2612C18.0692 12.2445 18.1676 12.1333 18.1676 12.001C18.1676 11.8686 18.0692 11.757 17.938 11.7403C17.13 11.6401 16.4382 11.1136 16.1265 10.3615C15.8147 9.60944 15.9311 8.74787 16.4312 8.10547C16.4787 8.05875 16.5036 7.99372 16.4995 7.92721C16.4954 7.8607 16.4626 7.79925 16.4097 7.75877C16.3693 7.70566 16.3078 7.67276 16.2412 7.66863C16.1747 7.6645 16.1096 7.68956 16.063 7.73727C15.4206 8.23736 14.559 8.35372 13.8069 8.04196C13.0549 7.7302 12.5283 7.0384 12.4282 6.23047C12.4115 6.0992 12.2998 6.00082 12.1675 6.00082C12.0351 6.00082 11.9235 6.0992 11.9068 6.23047C11.8064 7.03831 11.2798 7.72996 10.5278 8.04161C9.77577 8.35326 8.91429 8.23684 8.27196 7.73677C8.22524 7.68925 8.16021 7.66432 8.0937 7.66845C8.02719 7.67257 7.96574 7.70534 7.92526 7.75827C7.87233 7.79875 7.83956 7.8602 7.83544 7.92671C7.83131 7.99322 7.85624 8.05825 7.90376 8.10497C8.40383 8.7473 8.52025 9.60878 8.2086 10.3608C7.89695 11.1128 7.2053 11.6394 6.39746 11.7398C6.26619 11.7565 6.16781 11.8681 6.16781 12.0005C6.16781 12.1328 6.26619 12.2445 6.39746 12.2612C7.20504 12.3617 7.89639 12.8883 8.20792 13.6401C8.51945 14.392 8.40315 15.2532 7.90336 15.8955C7.85584 15.9422 7.83091 16.0072 7.83504 16.0737C7.83916 16.1402 7.87193 16.2017 7.92486 16.2422C7.96494 16.2957 8.0265 16.3289 8.09324 16.3331C8.15998 16.3372 8.22517 16.3118 8.27156 16.2637C8.66593 15.9537 9.15274 15.7847 9.65436 15.7837C9.95414 15.784 10.2509 15.8438 10.5275 15.9595C11.2831 16.2667 11.8116 16.9608 11.9068 17.771C11.9235 17.9022 12.0351 18.0006 12.1675 18.0006C12.2998 18.0006 12.4115 17.9022 12.4282 17.771C12.5283 16.963 13.0549 16.2712 13.8069 15.9595C14.559 15.6477 15.4206 15.7641 16.063 16.2642C16.1674 16.3453 16.316 16.336 16.4095 16.2425C16.503 16.149 16.5123 16.0004 16.4312 15.896C15.9311 15.2536 15.8147 14.392 16.1265 13.6399Z" fill="#1C1C1C"/>
<path fill-rule="evenodd" clip-rule="evenodd" d="M12.1674 10.0005C11.0629 10.0005 10.1674 10.8959 10.1674 12.0005C10.1674 13.1051 11.0629 14.0005 12.1674 14.0005C13.272 14.0005 14.1674 13.1051 14.1674 12.0005C14.166 10.8965 13.2714 10.002 12.1674 10.0005Z" fill="#1C1C1C"/>
</g>
</svg>
